<svg xmlns="http://www.w3.org/2000/svg" viewBox="0 0 64 64" width="64" height="64">
	<title>Pet Hub cat</title>
	<!-- ears -->
	<path d="M13 30 L15 7 L31 17 Z" fill="#7c3aed" />
	<path d="M51 30 L49 7 L33 17 Z" fill="#7c3aed" />
	<!-- inner ears -->
	<path d="M17.5 24 L18.5 12.5 L27 18 Z" fill="#c4b5fd" />
	<path d="M46.5 24 L45.5 12.5 L37 18 Z" fill="#c4b5fd" />
	<!-- head -->
	<circle cx="32" cy="38" r="21" fill="#7c3aed" />
	<!-- eyes -->
	<circle cx="24" cy="35" r="3.2" fill="#ffffff" />
	<circle cx="40" cy="35" r="3.2" fill="#ffffff" />
	<!-- nose -->
	<path d="M28.5 42 h7 L32 46.5 Z" fill="#ffffff" />
	<!-- mouth -->
	<path d="M32 46.5 v3 M32 49.5 q-3 3 -6 1 M32 49.5 q3 3 6 1" fill="none" stroke="#ffffff" stroke-width="1.8" stroke-linecap="round" />
	<!-- whiskers -->
	<path d="M20 42 h-9 M21 46 l-8.5 2.5 M44 42 h9 M43 46 l8.5 2.5" fill="none" stroke="#ffffff" stroke-width="1.8" stroke-linecap="round" />
</svg>
